
<svg id="svg" version="1.1" xmlns="http://www.w3.org/2000/svg" xmlns:xlink="http://www.w3.org/1999/xlink" width="400" height="400" viewBox="0, 0, 400,400"><g id="svgg"><path id="path0" d="M182.000 62.273 C 175.492 66.252,162.950 81.889,159.456 90.381 C 156.679 97.130,156.923 98.178,164.181 110.671 C 167.801 116.902,172.700 125.780,175.068 130.400 L 179.374 138.800 178.963 145.200 C 178.441 153.340,173.994 166.276,163.012 191.600 C 141.451 241.318,133.766 260.493,128.080 278.768 C 125.279 287.767,125.118 288.935,126.763 288.304 C 127.446 288.041,126.217 291.233,123.781 296.049 C 117.827 307.817,118.610 313.242,126.967 318.140 C 134.018 322.272,134.783 321.991,157.285 306.995 C 178.290 292.997,238.180 256.570,239.177 257.186 C 239.499 257.385,240.408 259.270,241.198 261.374 C 241.987 263.478,243.487 266.910,244.530 269.000 L 246.427 272.800 251.948 272.800 C 257.362 272.800,257.502 272.747,259.148 270.085 C 260.071 268.591,263.350 264.988,266.435 262.078 C 273.062 255.827,273.765 254.316,273.730 246.400 C 273.653 229.164,264.008 203.252,237.534 149.158 C 223.793 121.083,222.324 117.688,222.687 114.845 C 223.053 111.977,222.741 111.284,219.269 107.245 C 212.667 99.565,210.739 96.353,205.970 85.095 C 197.086 64.121,190.006 57.379,182.000 62.273 M212.385 205.501 C 218.398 217.986,223.022 228.452,222.659 228.757 C 222.297 229.063,219.480 230.339,216.400 231.593 C 208.655 234.746,187.359 245.403,174.400 252.611 C 168.460 255.914,163.401 258.726,163.158 258.858 C 162.914 258.991,171.354 241.852,181.912 220.771 C 192.471 199.691,201.187 182.523,201.281 182.622 C 201.375 182.720,206.372 193.015,212.385 205.501 " stroke="none" fill="#000000" fill-rule="evenodd"></path></g></svg>